<svg width="24" height="22" viewBox="0 0 24 22" fill="none" xmlns="http://www.w3.org/2000/svg">
<path d="M24 7.38825C24 7.28527 23.9755 7.18719 23.9215 7.09892L20.3514 0.821847C20.2485 0.6404 20.0523 0.522705 19.8414 0.522705H4.15366C3.94279 0.522705 3.74663 0.635496 3.64365 0.821847L0.0784634 7.09892C0.0294238 7.18719 0 7.28527 0 7.38825C0 8.79569 0.848386 10.0021 2.05966 10.5366V20.8889C2.05966 21.2125 2.32448 21.4773 2.64814 21.4773H5.89947C5.90437 21.4773 5.90928 21.4773 5.91418 21.4773H10.4749C10.4798 21.4773 10.4847 21.4773 10.4896 21.4773H21.347C21.6706 21.4773 21.9354 21.2125 21.9354 20.8889V10.6102C21.9354 10.5856 21.9354 10.566 21.9305 10.5464C23.1467 10.0119 24 8.80059 24 7.38825ZM4.49693 1.70456H19.4982L22.2885 6.61342H1.71148L4.49693 1.70456ZM17.0805 7.78547C16.8942 8.84472 15.9673 9.64897 14.8541 9.64897C13.7409 9.64897 12.8141 8.84472 12.6277 7.78547H17.0805ZM11.3772 7.78547C11.1908 8.84472 10.264 9.64897 9.1508 9.64897C8.0376 9.64897 7.11075 8.84472 6.91949 7.78547H11.3772ZM1.21618 7.78547H5.67389C5.48754 8.84472 4.55578 9.64897 3.44258 9.64897C2.32938 9.65388 1.40253 8.84472 1.21618 7.78547ZM6.50266 20.3004V13.9497C6.50266 13.4888 6.87536 13.1112 7.34123 13.1112H9.05272C9.51369 13.1112 9.8913 13.4839 9.8913 13.9497V20.3004H6.50266ZM20.7585 20.3004H11.0633V13.9497C11.0633 12.8415 10.161 11.9342 9.04781 11.9342H7.33633C6.22803 11.9342 5.3208 12.8365 5.3208 13.9497V20.3053H3.23662V10.8259C3.30527 10.8308 3.37393 10.8308 3.44258 10.8308C4.62934 10.8308 5.67879 10.2276 6.29669 9.3106C6.91459 10.2276 7.96404 10.8308 9.1508 10.8308C10.3376 10.8308 11.3821 10.2276 12.0049 9.3106C12.6228 10.2276 13.6723 10.8308 14.8541 10.8308C16.0409 10.8308 17.0854 10.2276 17.7033 9.3106C18.3212 10.2276 19.3707 10.8308 20.5574 10.8308C20.6261 10.8308 20.6898 10.8259 20.7585 10.8259V20.3004ZM20.5574 9.65388C19.4442 9.65388 18.5174 8.84963 18.331 7.79037H22.7887C22.5975 8.84473 21.6706 9.65388 20.5574 9.65388Z" fill="#C4C4C4"/>
<path d="M17.0511 11.9342H13.7899C12.8974 11.9342 12.1716 12.66 12.1716 13.5525V16.0535C12.1716 16.9461 12.8974 17.6718 13.7899 17.6718H17.0511C17.9436 17.6718 18.6694 16.9461 18.6694 16.0535V13.5525C18.6694 12.66 17.9436 11.9342 17.0511 11.9342ZM17.4924 16.0535C17.4924 16.2987 17.2914 16.4949 17.0511 16.4949H13.7899C13.5447 16.4949 13.3486 16.2938 13.3486 16.0535V13.5525C13.3486 13.3073 13.5496 13.1112 13.7899 13.1112H17.0511C17.2963 13.1112 17.4924 13.3122 17.4924 13.5525V16.0535Z" fill="#C4C4C4"/>
</svg>
