<svg width="25" height="25" viewBox="0 0 25 25" fill="none" xmlns="http://www.w3.org/2000/svg">
<path d="M24.3086 10.4857C24.3079 10.4852 24.3074 10.4844 24.3068 10.4839L14.5157 0.694153C14.0984 0.276672 13.5435 0.046875 12.9533 0.046875C12.3631 0.046875 11.8082 0.276672 11.3907 0.694153L1.60475 10.4789C1.60145 10.4822 1.59797 10.4857 1.59486 10.489C0.737842 11.3509 0.739307 12.7493 1.59907 13.6089C1.99187 14.0019 2.51048 14.2293 3.06516 14.2533C3.08787 14.2555 3.11058 14.2566 3.13347 14.2566H3.52352V21.4611C3.52352 22.8869 4.6838 24.0469 6.10978 24.0469H9.94037C10.3288 24.0469 10.6436 23.7319 10.6436 23.3438V17.6953C10.6436 17.0447 11.173 16.5156 11.8236 16.5156H14.083C14.7336 16.5156 15.2629 17.0447 15.2629 17.6953V23.3438C15.2629 23.7319 15.5777 24.0469 15.9661 24.0469H19.7966C21.2228 24.0469 22.3829 22.8869 22.3829 21.4611V14.2566H22.7448C23.3348 14.2566 23.8897 14.0268 24.3074 13.6091C25.168 12.7482 25.1684 11.3472 24.3086 10.4857ZM23.3128 12.6149C23.161 12.7667 22.9592 12.8503 22.7448 12.8503H21.6797C21.2913 12.8503 20.9765 13.1651 20.9765 13.5535V21.4611C20.9765 22.1115 20.4473 22.6406 19.7966 22.6406H16.6693V17.6953C16.6693 16.2695 15.5092 15.1093 14.083 15.1093H11.8236C10.3974 15.1093 9.23717 16.2695 9.23717 17.6953V22.6406H6.10978C5.45933 22.6406 4.92992 22.1115 4.92992 21.4611V13.5535C4.92992 13.1651 4.61513 12.8503 4.22672 12.8503H3.17998C3.169 12.8496 3.15819 12.8491 3.14702 12.8489C2.93753 12.8452 2.74103 12.7621 2.5938 12.6147C2.28066 12.3016 2.28066 11.792 2.5938 11.4787C2.59399 11.4787 2.59399 11.4785 2.59417 11.4783L2.59472 11.4778L12.3854 1.68842C12.5371 1.53662 12.7387 1.45312 12.9533 1.45312C13.1677 1.45312 13.3694 1.53662 13.5212 1.68842L23.3097 11.4758C23.3112 11.4772 23.3128 11.4787 23.3143 11.4802C23.6258 11.7938 23.6252 12.3023 23.3128 12.6149Z" fill="#C4C4C4"/>
</svg>
