<svg width="21" height="24" viewBox="0 0 21 24" fill="none" xmlns="http://www.w3.org/2000/svg">
<path d="M20.3435 18.4548C20.3111 17.9871 20.2456 17.477 20.1491 16.9383C20.0517 16.3956 19.9262 15.8825 19.7761 15.4136C19.6208 14.9289 19.4101 14.4503 19.1491 13.9916C18.8787 13.5155 18.5608 13.1009 18.2041 12.7598C17.8311 12.403 17.3745 12.116 16.8464 11.9067C16.3202 11.6985 15.737 11.5931 15.1131 11.5931C14.8681 11.5931 14.6312 11.6936 14.1736 11.9915C13.892 12.1752 13.5626 12.3876 13.1949 12.6225C12.8805 12.8228 12.4546 13.0105 11.9286 13.1804C11.4153 13.3465 10.8942 13.4307 10.3797 13.4307C9.86551 13.4307 9.34439 13.3465 8.83078 13.1804C8.30527 13.0107 7.87918 12.823 7.56534 12.6227C7.20114 12.39 6.87155 12.1776 6.58572 11.9913C6.12851 11.6934 5.89157 11.5929 5.64658 11.5929C5.02255 11.5929 4.43954 11.6985 3.91348 11.9069C3.38577 12.1158 2.92892 12.4028 2.55557 12.76C2.19888 13.1013 1.88101 13.5157 1.61075 13.9916C1.35019 14.4503 1.13925 14.9287 0.983978 15.4137C0.834015 15.8827 0.708588 16.3956 0.611176 16.9383C0.514496 17.4762 0.449127 17.9866 0.416718 18.4553C0.384857 18.9136 0.368744 19.3906 0.368744 19.8725C0.368744 21.1253 0.766998 22.1396 1.55234 22.8876C2.32797 23.6256 3.3541 23.9999 4.60233 23.9999H16.1585C17.4063 23.9999 18.4325 23.6256 19.2083 22.8876C19.9938 22.1401 20.3921 21.1255 20.3921 19.8724C20.3919 19.3888 20.3756 18.9118 20.3435 18.4548ZM18.2386 21.8686C17.726 22.3564 17.0456 22.5935 16.1583 22.5935H4.60233C3.71481 22.5935 3.03439 22.3564 2.52206 21.8688C2.01944 21.3903 1.77518 20.7372 1.77518 19.8725C1.77518 19.4228 1.79001 18.9788 1.81967 18.5525C1.8486 18.1343 1.90775 17.6749 1.99545 17.1868C2.08206 16.7046 2.19229 16.2522 2.32339 15.8426C2.44919 15.4498 2.62076 15.0609 2.83353 14.6863C3.03659 14.3292 3.27023 14.0229 3.52805 13.7761C3.7692 13.5452 4.07315 13.3562 4.4313 13.2145C4.76254 13.0834 5.1348 13.0116 5.53891 13.0008C5.58817 13.027 5.67587 13.077 5.81796 13.1696C6.10709 13.358 6.44034 13.573 6.80875 13.8083C7.22403 14.0731 7.75906 14.3122 8.39828 14.5185C9.05179 14.7299 9.71829 14.8372 10.3799 14.8372C11.0414 14.8372 11.7081 14.7299 12.3612 14.5187C13.001 14.312 13.5359 14.0731 13.9517 13.8079C14.3287 13.567 14.6526 13.3582 14.9417 13.1696C15.0838 13.0771 15.1715 13.027 15.2208 13.0008C15.6251 13.0116 15.9973 13.0834 16.3288 13.2145C16.6867 13.3562 16.9907 13.5453 17.2318 13.7761C17.4897 14.0227 17.7233 14.329 17.9264 14.6865C18.1393 15.0609 18.3111 15.45 18.4367 15.8424C18.568 16.2526 18.6784 16.7048 18.7648 17.1866C18.8523 17.6756 18.9117 18.1352 18.9406 18.5527C18.9704 18.9773 18.9854 19.4216 18.9856 19.8725C18.9854 20.7373 18.7412 21.3903 18.2386 21.8686Z" fill="#C4C4C4"/>
<path d="M10.229 11.5609C11.8172 11.5609 13.1924 10.9913 14.3163 9.86735C15.4398 8.74364 16.0096 7.3687 16.0096 5.78026C16.0096 4.19237 15.44 2.81726 14.3161 1.69317C13.1922 0.56964 11.817 0 10.229 0C8.64053 0 7.26559 0.56964 6.14188 1.69336C5.01816 2.81707 4.44833 4.19219 4.44833 5.78026C4.44833 7.3687 5.01816 8.74382 6.14188 9.86753C7.26596 10.9911 8.64108 11.5609 10.229 11.5609ZM7.13651 2.6878C7.99875 1.82556 9.01022 1.40643 10.229 1.40643C11.4475 1.40643 12.4592 1.82556 13.3216 2.6878C14.1839 3.55023 14.6032 4.56188 14.6032 5.78026C14.6032 6.99901 14.1839 8.01048 13.3216 8.87291C12.4592 9.73533 11.4475 10.1545 10.229 10.1545C9.01059 10.1545 7.99911 9.73515 7.13651 8.87291C6.27408 8.01067 5.85477 6.99901 5.85477 5.78026C5.85477 4.56188 6.27408 3.55023 7.13651 2.6878Z" fill="#C4C4C4"/>
</svg>
