<svg width="20" height="24" viewBox="0 0 20 24" fill="none" xmlns="http://www.w3.org/2000/svg">
<path d="M18.7942 6.23852H4.17673C2.82225 6.23852 1.71493 5.13615 1.71493 3.77673C1.71493 2.42225 2.8173 1.31493 4.17673 1.31493H18.7992C19.165 1.31493 19.4566 1.01833 19.4566 0.657467C19.4566 0.291658 19.16 0 18.7992 0H4.17673C2.09557 0 0.400002 1.69557 0.400002 3.77673V20.2233C0.400002 22.3044 2.09557 24 4.17673 24H18.7992C19.165 24 19.4566 23.7034 19.4566 23.3425V6.89598C19.4517 6.53512 19.16 6.23852 18.7942 6.23852ZM18.1368 22.6851H4.17673C2.82225 22.6851 1.71493 21.5827 1.71493 20.2233V6.64387C2.37734 7.21236 3.23749 7.55839 4.17673 7.55839H18.1368V22.6851Z" fill="#C4C4C4"/>
<path d="M4.38437 3.17859C4.01856 3.17859 3.72691 3.47519 3.72691 3.83606C3.72691 4.19692 4.02351 4.49352 4.38437 4.49352H16.7329C17.0987 4.49352 17.3903 4.19692 17.3903 3.83606C17.3903 3.47519 17.0937 3.17859 16.7329 3.17859H4.38437Z" fill="#C4C4C4"/>
<path fill-rule="evenodd" clip-rule="evenodd" d="M14.1424 10.2064L10.9242 14.6574L14.1354 19.729H11.8668L9.04455 15.2718L8.85217 15.4671V19.729H7.06087V10.2064H8.85217V14.1455L11.9432 10.2064H14.1424Z" fill="#C4C4C4"/>
</svg>
