<svg width="24" height="24" viewBox="0 0 24 24" fill="none" xmlns="http://www.w3.org/2000/svg">
<path d="M7.20484 15.8024H20.4289C21.9283 15.8024 23.1516 14.5792 23.1516 13.0797V7.51583C23.1516 7.5109 23.1516 7.50103 23.1516 7.4961C23.1516 7.4813 23.1516 7.47144 23.1516 7.45664C23.1516 7.44677 23.1516 7.43691 23.1467 7.42704C23.1467 7.41718 23.1417 7.40238 23.1417 7.39252C23.1417 7.38265 23.1368 7.37279 23.1368 7.36292C23.1319 7.35306 23.1319 7.34319 23.1269 7.32839C23.122 7.31853 23.122 7.30866 23.1171 7.2988C23.1121 7.28893 23.1121 7.27907 23.1072 7.2692C23.1023 7.25934 23.0973 7.24948 23.0924 7.23468C23.0875 7.22481 23.0825 7.21495 23.0776 7.21002C23.0727 7.20015 23.0677 7.19029 23.0628 7.18042C23.0579 7.17056 23.0529 7.16562 23.048 7.15576C23.0431 7.14589 23.0332 7.13603 23.0283 7.12616C23.0234 7.1163 23.0184 7.11136 23.0086 7.1015C23.0036 7.09163 22.9938 7.0867 22.9888 7.07684C22.9839 7.06697 22.974 7.06204 22.9691 7.05217C22.9642 7.04231 22.9543 7.03738 22.9494 7.03244C22.9395 7.02258 22.9346 7.01765 22.9247 7.00778C22.9148 7.00285 22.9099 6.99298 22.9 6.98805C22.8902 6.98312 22.8803 6.97325 22.8704 6.96832C22.8606 6.96339 22.8556 6.95846 22.8458 6.95353C22.8359 6.94859 22.8261 6.94366 22.8162 6.9338C22.8063 6.92886 22.7965 6.92393 22.7866 6.919C22.7767 6.91406 22.7669 6.90913 22.757 6.9042C22.7471 6.89927 22.7373 6.89434 22.7274 6.8894C22.7175 6.88447 22.7077 6.88447 22.6978 6.87954C22.6879 6.8746 22.6731 6.86967 22.6633 6.86967C22.6534 6.86967 22.6435 6.86474 22.6386 6.86474C22.6238 6.85981 22.614 6.85981 22.5992 6.85981C22.5942 6.85981 22.5893 6.85487 22.5794 6.85487L5.8188 4.54153V2.20353C5.8188 2.17887 5.8188 2.1542 5.81387 2.13447C5.81387 2.12954 5.81387 2.12461 5.80894 2.11474C5.80894 2.09995 5.80401 2.08515 5.80401 2.07035C5.79907 2.05555 5.79907 2.04569 5.79414 2.03089C5.79414 2.02103 5.78921 2.01609 5.78921 2.00623C5.78428 1.99143 5.77934 1.97663 5.77441 1.96184C5.77441 1.9569 5.76948 1.94704 5.76948 1.94211C5.76455 1.92731 5.75961 1.91744 5.74975 1.90265C5.74482 1.89771 5.74482 1.88785 5.73988 1.88292C5.73495 1.87305 5.73002 1.86319 5.72015 1.85332C5.71522 1.84346 5.71029 1.83852 5.70536 1.82866C5.70042 1.81879 5.69549 1.81386 5.69056 1.804C5.68563 1.79413 5.67576 1.78427 5.67083 1.7744C5.6659 1.76947 5.66096 1.76454 5.65603 1.7596C5.64617 1.74974 5.6363 1.73987 5.62644 1.73001C5.6215 1.72508 5.61657 1.72014 5.61164 1.71521C5.60177 1.70535 5.59191 1.69548 5.57711 1.68562C5.57218 1.68068 5.56231 1.67575 5.55738 1.67082C5.54752 1.66095 5.53765 1.65602 5.52779 1.64616C5.51299 1.63629 5.49819 1.62643 5.48833 1.62149C5.48339 1.61656 5.47846 1.61656 5.47353 1.61163C5.4538 1.60176 5.42914 1.5919 5.40941 1.58203L1.77416 0.0529602C1.43381 -0.0900822 1.04415 0.0677577 0.901105 0.4081C0.758062 0.748442 0.915902 1.13811 1.25624 1.28115L4.4821 2.64252V5.66121V6.13966V9.80944V13.0896V17.2328C4.4821 18.6139 5.51792 19.7583 6.85463 19.9309C6.61294 20.3354 6.46989 20.8089 6.46989 21.312C6.46989 22.7967 7.67836 24.0002 9.1581 24.0002C10.6379 24.0002 11.8463 22.7918 11.8463 21.312C11.8463 20.8188 11.7131 20.3502 11.4764 19.9556H17.4644C17.2277 20.3551 17.0945 20.8188 17.0945 21.312C17.0945 22.7967 18.303 24.0002 19.7827 24.0002C21.2625 24.0002 22.4709 22.7918 22.4709 21.312C22.4709 19.8323 21.2625 18.6238 19.7827 18.6238H7.20484C6.43537 18.6238 5.81387 17.9974 5.81387 17.2328V15.4276C6.21834 15.6643 6.69679 15.8024 7.20484 15.8024ZM10.5195 21.3071C10.5195 22.0568 9.90784 22.6635 9.16304 22.6635C8.41823 22.6635 7.8066 22.0519 7.8066 21.3071C7.8066 20.5623 8.41823 19.9507 9.16304 19.9507C9.90784 19.9507 10.5195 20.5574 10.5195 21.3071ZM21.1441 21.3071C21.1441 22.0568 20.5324 22.6635 19.7876 22.6635C19.0428 22.6635 18.4312 22.0519 18.4312 21.3071C18.4312 20.5623 19.0428 19.9507 19.7876 19.9507C20.5324 19.9507 21.1441 20.5574 21.1441 21.3071ZM20.4289 14.4707H7.20484C6.43537 14.4707 5.81387 13.8442 5.81387 13.0797V9.79958V6.1298V5.88317L21.8198 8.088V13.0748C21.8198 13.8492 21.1934 14.4707 20.4289 14.4707Z" fill="#C4C4C4"/>
</svg>
